
<svg version="1.0" xmlns="http://www.w3.org/2000/svg"
 width="121.000000pt" height="512.000000pt" viewBox="0 0 121.000000 512.000000"
 preserveAspectRatio="xMidYMid meet">

<g id="g" transform="translate(0.000000,512.000000) scale(0.100000,-0.100000)"
fill="#ffffff" stroke="none">
<path d="M555 5085 c-25 -24 -25 -25 -25 -220 l0 -197 -192 -271 -193 -272 -3
-261 -3 -262 -39 -6 c-66 -10 -70 -25 -70 -232 0 -168 1 -183 21 -208 15 -19
30 -26 55 -26 l34 0 0 -1335 0 -1335 -30 0 c-19 0 -40 -9 -55 -25 -25 -24 -25
-26 -25 -207 0 -150 3 -188 16 -206 l15 -22 543 0 c493 0 545 2 557 17 11 12
15 63 17 204 l3 189 -25 25 c-16 16 -36 25 -55 25 l-31 0 -2 1086 -3 1086 -28
24 c-15 13 -37 24 -47 24 -10 0 -32 -11 -47 -24 l-28 -24 -3 -1086 -2 -1086
-308 2 -307 3 0 1330 0 1330 307 3 306 2 4 -101 c3 -96 4 -102 31 -125 35 -30
59 -30 94 0 27 23 28 29 31 125 l4 101 29 0 c18 0 39 10 54 25 25 24 25 27 25
199 0 107 -4 185 -11 199 -12 26 -47 47 -79 47 -19 0 -20 9 -20 245 0 188 -3
253 -14 278 -8 18 -95 147 -195 287 l-180 255 -1 198 c0 197 0 198 -25 222
-13 14 -36 25 -50 25 -14 0 -37 -11 -50 -25z m204 -795 l151 -214 0 -238 0
-238 -25 0 -25 0 0 103 c0 56 -3 113 -7 126 -9 36 -210 191 -247 191 -21 0
-56 -20 -124 -72 -135 -103 -132 -99 -132 -234 l0 -114 -30 0 -30 0 0 233 0
232 157 222 c86 123 158 222 159 220 1 -1 70 -99 153 -217z m-91 -489 l42 -33
0 -84 0 -84 -105 0 -105 0 0 84 0 84 51 41 c32 25 56 38 63 33 6 -5 30 -23 54
-41z m360 -438 l3 -83 -426 0 -425 0 0 85 0 85 423 -2 422 -3 3 -82z m2 -3138
l0 -85 -425 0 -425 0 0 85 0 85 425 0 425 0 0 -85z"/>
</g>
</svg>

