
<svg version="1.0" xmlns="http://www.w3.org/2000/svg"
 width="498.000000pt" height="512.000000pt" viewBox="0 0 498.000000 512.000000"
 preserveAspectRatio="xMidYMid meet">

<g id="g" transform="translate(0.000000,512.000000) scale(0.100000,-0.100000)"
fill="#ffffff" stroke="none">
<path d="M725 5095 c-25 -24 -25 -25 -25 -222 l-1 -198 -180 -255 c-100 -140
-187 -269 -195 -287 -11 -25 -14 -90 -14 -278 0 -236 -1 -245 -20 -245 -32 0
-67 -21 -79 -47 -7 -14 -11 -92 -11 -199 0 -172 0 -175 25 -199 15 -15 36 -25
54 -25 l29 0 4 -101 c3 -96 4 -102 31 -125 35 -30 59 -30 94 0 27 23 28 29 31
125 l4 101 306 -2 307 -3 0 -1330 0 -1330 -307 -3 -308 -2 -2 1086 -3 1086
-28 24 c-15 13 -37 24 -47 24 -10 0 -32 -11 -47 -24 l-28 -24 -3 -1086 -2
-1086 -31 0 c-19 0 -39 -9 -55 -25 l-25 -25 3 -191 c3 -187 4 -191 27 -210 22
-18 46 -19 548 -19 l524 0 24 25 c25 24 25 26 25 210 0 184 0 186 -25 210 -15
16 -36 25 -55 25 l-30 0 0 1335 0 1335 34 0 c25 0 40 7 55 26 20 25 21 40 21
208 0 207 -4 222 -70 232 l-39 6 -3 262 -3 261 -192 272 -193 271 0 197 c0
195 0 196 -25 220 -13 14 -36 25 -50 25 -14 0 -37 -11 -50 -25z m211 -802
l154 -218 0 -232 0 -233 -30 0 -30 0 0 114 c0 135 3 131 -132 234 -68 52 -103
72 -124 72 -37 0 -238 -155 -247 -191 -4 -13 -7 -70 -7 -126 l0 -103 -25 0
-25 0 0 238 0 238 152 216 c84 120 154 215 156 213 2 -2 73 -102 158 -222z
m-98 -481 l42 -34 0 -84 0 -84 -105 0 -105 0 0 85 0 84 52 40 c29 22 57 37 63
33 5 -3 29 -21 53 -40z m362 -437 l0 -85 -425 0 -425 0 0 78 c0 43 3 82 7 85
3 4 195 7 425 7 l418 0 0 -85z m0 -3140 l0 -85 -425 0 -425 0 0 85 0 85 425 0
425 0 0 -85z"/>
<path d="M3273 5100 c-25 -10 -43 -39 -43 -70 0 -11 19 -55 42 -97 36 -66 42
-86 46 -152 13 -231 -158 -402 -389 -389 -66 4 -86 10 -152 46 -79 44 -105 49
-138 31 -33 -17 -40 -52 -22 -111 31 -106 107 -224 188 -291 70 -58 182 -110
263 -123 l42 -7 0 -67 0 -67 -191 -89 c-507 -235 -952 -511 -1123 -695 -96
-104 -156 -245 -156 -369 0 -138 53 -309 132 -431 l40 -62 -179 -179 -178
-178 -3 -858 c-1 -471 0 -867 3 -880 3 -12 14 -31 25 -42 20 -20 41 -20 1704
-20 1643 0 1684 0 1707 19 l24 19 3 878 2 877 -181 182 -180 182 26 39 c15 21
42 68 60 104 112 223 110 460 -4 638 -71 111 -259 263 -523 424 -167 102 -517
286 -711 374 l-148 68 3 65 3 65 53 11 c209 47 403 244 448 454 55 263 -73
533 -311 653 -38 20 -155 61 -159 57 -1 0 -11 -4 -23 -9z m310 -382 c80 -170
45 -371 -87 -504 -168 -167 -435 -174 -607 -16 l-51 47 100 -3 c70 -3 117 1
154 12 169 49 313 191 362 357 17 54 23 206 11 244 -13 38 94 -85 118 -137z
m-183 -1148 c612 -287 1048 -576 1133 -751 76 -154 48 -351 -74 -538 l-33 -50
-363 -3 c-358 -3 -363 -3 -384 -25 -29 -29 -29 -77 0 -106 21 -22 26 -22 389
-25 l367 -3 168 -167 167 -167 0 -792 0 -793 -525 0 -525 0 0 425 0 426 -119
127 c-65 70 -179 187 -253 260 -109 106 -140 132 -163 132 -32 0 -129 -91
-386 -362 l-149 -157 0 -425 0 -426 -522 2 -523 3 -3 791 -2 792 170 166 171
165 729 3 728 3 26 24 c43 41 30 99 -28 121 -18 6 -271 10 -739 10 l-712 0
-34 51 c-54 83 -91 176 -108 268 -23 133 -2 230 72 331 89 121 372 316 760
523 134 71 530 265 546 266 4 1 102 -44 219 -99z m-17 -2436 l187 -190 0 -397
0 -397 -385 0 -385 0 0 397 0 398 192 192 c106 106 195 192 198 191 3 -2 89
-89 193 -194z"/>
<path d="M1995 1660 c-193 -150 -175 -109 -175 -386 l0 -235 25 -24 24 -25
286 0 286 0 24 25 25 24 0 231 c0 141 -4 239 -10 251 -6 10 -75 69 -153 129
-109 84 -149 110 -172 110 -23 0 -62 -25 -160 -100z m263 -148 l82 -63 0 -155
0 -154 -185 0 -185 0 0 154 0 154 92 70 c51 39 97 68 103 64 5 -3 47 -35 93
-70z"/>
<path d="M4055 1660 c-193 -150 -175 -109 -175 -386 l0 -235 25 -24 24 -25
286 0 286 0 24 25 25 24 0 237 0 237 -38 36 c-21 20 -90 75 -154 124 -84 63
-123 87 -144 87 -21 0 -63 -26 -159 -100z m263 -148 l82 -63 0 -155 0 -154
-185 0 -185 0 0 154 0 153 91 71 c51 39 97 68 103 65 6 -4 48 -36 94 -71z"/>
</g>
</svg>
